<svg
        xmlns="http://www.w3.org/2000/svg"
        width="43"
        height="42"
        viewBox="0 0 43 42"
        fill="none"
      >
        <path
          d="M21.1141 0.472778L0.0181885 21.1273L21.1141 41.7819L42.21 21.1273L21.1141 0.472778ZM4.98996 21.1273L21.1141 5.34054L27.9333 12.0171L25.4472 14.4513L21.1141 10.2098L9.96332 21.1273L14.2948 25.3698L11.8087 27.8039L4.98996 21.1273ZM27.2946 21.1273L21.1141 27.1801L14.9351 21.1273L21.1141 15.0776L27.2946 21.1273ZM14.2948 30.238L16.781 27.8039L21.1141 32.0448L32.2664 21.1273L27.9333 16.8849L30.4195 14.4507L37.2382 21.1273L21.1141 36.9141L14.2948 30.238Z"
          fill="url(#paint0_linear_36_344)"
        />
        <defs>
          <linearGradient
            id="paint0_linear_36_344"
            x1="21.1141"
            y1="0.472778"
            x2="21.1141"
            y2="41.7819"
            gradientUnits="userSpaceOnUse"
          >
            <stop stop-color="#86BC29" />
            <stop offset="1" stop-color="#2EBC29" stop-opacity="0.03" />
          </linearGradient>
        </defs>
      </svg>