<svg
        xmlns="http://www.w3.org/2000/svg"
        width="45"
        height="44"
        viewBox="0 0 45 44"
        fill="none"
      >
        <path
          d="M43.0848 13.2889C42.2418 11.4011 41.126 9.6418 39.7717 8.06499C37.7697 5.66446 35.2714 3.70638 32.441 2.31961C29.6106 0.932849 26.5125 0.148849 23.3505 0.0192099C20.1884 -0.110429 17.0342 0.41723 14.0954 1.56747C11.1566 2.7177 8.49984 4.46443 6.29999 6.69269C4.10014 8.92095 2.40707 11.5802 1.33222 14.4955C0.257372 17.4107 -0.174892 20.5158 0.063884 23.6065C0.30266 26.6971 1.20706 29.7032 2.71756 32.4269C4.22806 35.1505 6.31041 37.53 8.82755 39.4088C10.4427 40.6383 12.2274 41.6379 14.1285 42.3777C16.7939 43.4474 19.6466 43.9984 22.5271 44C28.4731 43.9871 34.1714 41.6659 38.3727 37.5452C42.5741 33.4245 44.9358 27.8405 44.9401 22.0172C44.9445 19.0134 44.3128 16.0414 43.0848 13.2889ZM22.5106 4.47959C25.0974 4.47932 27.6529 5.03304 29.9982 6.10194C29.4263 6.34394 28.825 6.51297 28.2091 6.60487C26.1825 6.89218 24.3051 7.81364 22.8571 9.23173C21.4091 10.6498 20.4682 12.4885 20.1749 14.4733C20.0461 15.5864 19.5292 16.6219 18.7113 17.4052C17.8935 18.1884 16.8248 18.6713 15.6856 18.7725C13.659 19.0598 11.7816 19.9813 10.3336 21.3993C8.88566 22.8174 7.94478 24.6561 7.65141 26.6409C7.55209 27.6993 7.09099 28.6939 6.34274 29.4638C5.05172 26.7922 4.47177 23.8442 4.65684 20.8941C4.8419 17.9439 5.78598 15.0876 7.40122 12.5909C9.01646 10.0942 11.2504 8.03824 13.895 6.61436C16.5397 5.19047 19.5092 4.44494 22.5271 4.44714L22.5106 4.47959ZM8.81099 33.3736C9.00978 33.1952 9.20856 33.0329 9.40735 32.8382C10.8811 31.4389 11.8271 29.5917 12.0909 27.5981C12.1979 26.4774 12.7088 25.4307 13.5321 24.6454C14.3244 23.8377 15.3907 23.3415 16.5305 23.2502C18.5571 22.9629 20.4345 22.0414 21.8825 20.6233C23.3304 19.2052 24.2713 17.3666 24.5647 15.3818C24.6364 14.2096 25.15 13.1054 26.0059 12.2831C26.8177 11.4911 27.8942 11.013 29.0374 10.9365C30.8992 10.6857 32.6356 9.87506 34.007 8.61658C35.5685 9.88538 36.8916 11.4117 37.9164 13.1267C37.8535 13.21 37.7812 13.2862 37.7011 13.3538C36.9103 14.1686 35.8454 14.6757 34.7027 14.7815C32.674 15.0638 30.7938 15.9836 29.3449 17.4026C27.896 18.8216 26.9567 20.6631 26.6685 22.6499C26.5518 23.7668 26.0443 24.8098 25.2322 25.6022C24.4201 26.3946 23.3532 26.8876 22.2124 26.9978C20.1799 27.2829 18.2955 28.2025 16.8391 29.6201C15.3827 31.0376 14.4321 32.8774 14.1285 34.8662C14.0393 35.6591 13.7613 36.4204 13.3168 37.0888C11.6172 36.1005 10.095 34.8454 8.81099 33.3736ZM22.5106 39.6359C20.8296 39.6377 19.1568 39.4083 17.541 38.9545C18.0937 37.9454 18.453 36.8457 18.6011 35.7098C18.7172 34.5954 19.2223 33.5544 20.0311 32.7623C20.8398 31.9702 21.9028 31.4756 23.0407 31.3619C25.0703 31.0778 26.9514 30.1578 28.4027 28.7394C29.8539 27.3211 30.7972 25.4807 31.0915 23.4935C31.2076 22.3791 31.7126 21.3381 32.5214 20.546C33.3301 19.7539 34.3931 19.2593 35.531 19.1456C37.0584 18.9511 38.5141 18.3941 39.7717 17.5233C40.4701 20.1156 40.5528 22.8302 40.0136 25.4587C39.4743 28.0873 38.3275 30.5599 36.661 32.687C34.9945 34.814 32.8526 36.539 30.3998 37.7295C27.9469 38.9199 25.2481 39.5443 22.5106 39.5548V39.6359Z"
          fill="url(#paint0_linear_36_340)"
        />
        <defs>
          <linearGradient
            id="paint0_linear_36_340"
            x1="22.4701"
            y1="0"
            x2="22.4701"
            y2="44"
            gradientUnits="userSpaceOnUse"
          >
            <stop stop-color="#86BC29" />
            <stop offset="1" stop-color="#2EBC29" stop-opacity="0.03" />
          </linearGradient>
        </defs>
      </svg>