<svg
        xmlns="http://www.w3.org/2000/svg"
        width="46"
        height="46"
        viewBox="0 0 46 46"
        fill="none"
      >
        <g clip-path="url(#clip0_36_367)">
          <path
            d="M44.0975 1.8173C40.8518 -1.40013 32.1716 1.74107 22.9022 8.91045C13.6299 1.74107 4.94976 -1.39846 1.70565 1.8173C-1.54295 5.03473 1.62869 13.6314 8.86347 22.8146C1.63038 31.9984 -1.54295 40.5967 1.70565 43.8119C4.95144 47.0288 13.6339 43.8865 22.9027 36.7188C32.1716 43.8865 40.8523 47.0288 44.0981 43.8119C47.3467 40.5945 44.1734 31.9961 36.9375 22.8146C44.1751 13.6314 47.3467 5.03306 44.0975 1.8173ZM40.4366 4.26348C41.1231 4.26348 41.4135 4.40482 41.45 4.44099C41.6388 4.62741 42.1269 6.73248 39.7799 11.5753C38.507 14.2023 36.7055 17.0197 34.5113 19.8732C33.2176 18.3908 31.8284 16.909 30.3465 15.4416C28.8668 13.9781 27.3703 12.6014 25.8766 11.3205C32.0452 6.67294 37.4661 4.26348 40.4366 4.26348ZM32.1165 22.8135C30.7448 24.4089 29.2741 26.0037 27.6961 27.5668C26.0867 29.1632 24.4807 30.6156 22.9038 31.9422C21.2927 30.5855 19.6833 29.1287 18.1065 27.5668C16.4948 25.9714 15.027 24.3799 13.6878 22.8191C15.0573 21.2209 16.5263 19.6289 18.1026 18.0664C19.7159 16.4705 21.3214 15.0142 22.8982 13.6876C24.5116 15.0465 26.1216 16.5033 27.6973 18.0647C29.3095 19.6612 30.7779 21.2499 32.1165 22.8135ZM4.17454 5.44428C4.17454 4.76708 4.31723 4.47716 4.35318 4.44099C4.53968 4.25625 6.66534 3.77046 11.5554 6.09701C14.2074 7.35794 17.0493 9.14249 19.9322 11.3143C18.4357 12.597 16.9364 13.9736 15.455 15.441C13.9771 16.9067 12.5873 18.3891 11.2964 19.8693C6.60692 13.7561 4.17454 8.38627 4.17454 5.44428ZM5.36658 41.3663C4.68068 41.3663 4.38857 41.2233 4.35318 41.1894C4.16499 41.0024 3.67627 38.8973 6.02495 34.0545C7.29787 31.428 9.09772 28.6107 11.2919 25.7572C12.5867 27.239 13.9765 28.7231 15.4579 30.1904C16.9358 31.6567 18.4318 33.0312 19.9283 34.3121C13.7574 38.9569 8.33655 41.3663 5.36658 41.3663ZM41.6292 40.185C41.6292 40.8633 41.4848 41.1526 41.45 41.1871C41.2618 41.3741 39.1367 41.8593 34.2478 39.5328C31.5981 38.2719 28.7539 36.4873 25.8733 34.3138C27.3675 33.0323 28.8657 31.6562 30.3448 30.1899C31.825 28.7242 33.2142 27.2423 34.5079 25.7605C39.1968 31.8732 41.6292 37.2407 41.6292 40.185Z"
            fill="url(#paint0_linear_36_367)"
          />
        </g>
        <defs>
          <linearGradient
            id="paint0_linear_36_367"
            x1="22.9017"
            y1="0.555664"
            x2="22.9017"
            y2="45.0731"
            gradientUnits="userSpaceOnUse"
          >
            <stop stop-color="#2EBC29" />
            <stop offset="1" stop-color="#86BC29" stop-opacity="0.06" />
          </linearGradient>
          <clipPath id="clip0_36_367">
            <rect
              width="44.9402"
              height="45.0732"
              fill="white"
              transform="translate(0.43161)"
            />
          </clipPath>
        </defs>
      </svg>