<?xml version="1.0" encoding="utf-8"?>
<!-- Generator: Adobe Illustrator 26.0.1, SVG Export Plug-In . SVG Version: 6.00 Build 0)  -->
<svg version="1.1" id="Layer_1" xmlns="http://www.w3.org/2000/svg" xmlns:xlink="http://www.w3.org/1999/xlink" x="0px" y="0px"
	 viewBox="0 0 141.73 141.73" style="enable-background:new 0 0 141.73 141.73;" xml:space="preserve">
<style type="text/css">
	.st0{fill:#B2E062;}
	.st1{fill:#333333;}
	.st2{fill:#FFFFFF;}
</style>
<circle class="st1" cx="70.87" cy="70.87" r="70.45"/>
<g>
	<path class="st2" d="M72.91,111.11c-8.56,0-12.08-1.44-14.84-9.5l-0.02-0.07L46.43,77.25c-1.11-3.35-1.58-5.2-1.58-7.88
		c0-5.71,3.82-9.55,9.49-9.55c2.07,0,8.96,0.57,10.81,7.85l0.02,0.07l6.78,17.71h2.03l12.25-46.96c1.85-7.29,8.74-7.86,10.81-7.86
		c5.23,0,10.88,3.65,10.88,9.55c0,2.7-0.47,4.55-1.6,7.95L87.75,101.6C84.99,109.67,81.47,111.11,72.91,111.11"/>
	<path class="st0" d="M44.78,52.56c-5.43,0-9.95-3.96-10.82-9.15c-0.1-0.59-0.15-1.2-0.15-1.82c0-6.05,4.92-10.97,10.97-10.97
		s10.97,4.92,10.97,10.97C55.74,47.64,50.82,52.56,44.78,52.56"/>
</g>
</svg>
